<?xml version="1.0" encoding="iso-8859-1"?>
<!-- Generator: Adobe Illustrator 19.0.0, SVG Export Plug-In . SVG Version: 6.00 Build 0)  -->
<svg version="1.1" id="Layer_1" xmlns="http://www.w3.org/2000/svg" xmlns:xlink="http://www.w3.org/1999/xlink" x="0px" y="0px"
	 viewBox="0 0 512 512" style="enable-background:new 0 0 512 512;" xml:space="preserve">
<g transform="translate(1 1)">
	<g>
		<path style="fill:#FFDB6E;" d="M468.333,267.8c-5.12,0-8.533-3.413-8.533-8.533c0-5.12,0-11.093-0.853-16.213
			c0-5.12,3.413-8.533,7.68-9.387c5.12,0,8.533,3.413,9.387,7.68c0.853,5.973,0.853,11.947,0.853,17.92
			C476.867,264.387,473.453,267.8,468.333,267.8z"/>
		<path style="fill:#FFDB6E;" d="M463.213,221.72c-4.267,0-7.68-2.56-8.533-6.827c-1.707-5.973-3.413-11.947-5.12-17.92
			c-1.707-4.267,0.853-9.387,5.12-11.093c4.267-1.707,9.387,0.853,11.093,5.12c1.707,6.827,4.267,12.8,5.12,19.627
			c0.853,4.267-1.707,9.387-6.827,10.24C464.92,221.72,464.067,221.72,463.213,221.72z M447,174.787c-3.413,0-5.973-1.707-7.68-5.12
			c-2.56-5.973-5.973-11.093-9.387-16.213c-2.56-4.267-1.707-9.387,2.56-11.947s9.387-1.707,11.947,2.56
			c3.413,5.973,6.827,11.947,10.24,17.92c1.707,4.267,0,9.387-3.413,11.093C449.56,174.787,448.707,174.787,447,174.787z"/>
		<path style="fill:#FFDB6E;" d="M419.693,134.68c-2.56,0-4.267-0.853-5.973-2.56c-4.267-4.267-8.533-9.387-13.653-13.653
			c-3.413-3.413-3.413-8.533-0.853-11.947c3.413-3.413,8.533-3.413,11.947-0.853c5.12,4.267,10.24,9.387,14.507,14.507
			c3.413,3.413,2.56,8.533-0.853,11.947C423.107,133.827,421.4,134.68,419.693,134.68z M382.147,102.253
			c-1.707,0-3.413-0.853-4.267-1.707c-5.12-3.413-11.093-6.827-16.213-9.387c-5.12-1.707-6.827-6.827-4.267-11.093
			c1.707-4.267,6.827-5.973,11.093-3.413c5.973,3.413,11.947,6.827,17.92,10.24c4.267,2.56,5.12,7.68,2.56,11.947
			C387.267,101.4,384.707,102.253,382.147,102.253z M337.773,81.773c-0.853,0-1.707,0-2.56,0c-5.973-1.707-11.947-3.413-17.92-5.12
			c-4.267-0.853-7.68-5.973-6.827-10.24c0.853-4.267,5.973-7.68,10.24-6.827c5.973,1.707,12.8,3.413,19.627,5.12
			c4.267,1.707,6.827,5.973,5.12,11.093C344.6,79.213,341.187,81.773,337.773,81.773z"/>
		<path style="fill:#FFDB6E;" d="M289.133,72.387L289.133,72.387c-5.973-0.853-11.947-0.853-17.067-0.853s-8.533-3.413-8.533-8.533
			s3.413-8.533,8.533-8.533c5.973,0,11.947,0,17.92,0.853c5.12,0,8.533,4.267,7.68,9.387
			C297.667,68.973,293.4,72.387,289.133,72.387z"/>
		<path style="fill:#FFDB6E;" d="M59.587,293.4c-4.267,0-8.533-3.413-8.533-7.68C50.2,279.747,50.2,273.773,50.2,267.8
			c0-5.12,3.413-8.533,8.533-8.533s8.533,3.413,8.533,8.533s0,11.093,0.853,16.213C68.12,289.133,64.707,293.4,59.587,293.4
			L59.587,293.4z"/>
		<path style="fill:#FFDB6E;" d="M89.453,386.413c-2.56,0-5.973-1.707-6.827-4.267c-3.413-5.973-6.827-11.947-10.24-17.92
			c-1.707-4.267,0-9.387,3.413-11.093c4.267-1.707,9.387,0,11.093,3.413c2.56,5.973,5.973,11.093,9.387,16.213
			c2.56,4.267,1.707,9.387-2.56,11.947C92.867,385.56,91.16,386.413,89.453,386.413z M68.973,342.04
			c-3.413,0-6.827-2.56-8.533-5.973c-1.707-6.827-4.267-12.8-5.12-19.627c-0.853-4.267,1.707-9.387,6.827-10.24
			c4.267-0.853,9.387,1.707,10.24,6.827c1.707,5.973,3.413,11.947,5.12,17.92c1.707,4.267-0.853,9.387-5.12,11.093
			C70.68,341.187,69.827,342.04,68.973,342.04z"/>
		<path style="fill:#FFDB6E;" d="M208.92,467.48c-0.853,0-0.853,0-1.707,0c-6.827-1.707-13.653-3.413-19.627-5.12
			c-4.267-1.707-6.827-5.973-5.12-11.093c1.707-4.267,5.973-6.827,11.093-5.12c5.973,1.707,11.947,3.413,17.92,5.12
			c4.267,0.853,7.68,5.973,6.827,10.24C215.747,464.92,212.333,467.48,208.92,467.48z M161.987,451.267c-1.707,0-2.56,0-3.413-0.853
			c-5.973-3.413-11.947-6.827-17.92-10.24c-4.267-2.56-5.12-7.68-2.56-11.947c2.56-4.267,7.68-5.12,11.947-2.56
			c5.12,3.413,11.093,6.827,16.213,9.387c4.267,1.707,5.973,6.827,3.413,11.093C167.96,449.56,165.4,451.267,161.987,451.267z
			 M121.88,423.96c-1.707,0-4.267-0.853-5.973-2.56c-5.12-4.267-10.24-9.387-14.507-14.507c-3.413-3.413-2.56-8.533,0.853-11.947
			c3.413-3.413,8.533-2.56,11.947,0.853c4.267,4.267,8.533,9.387,13.653,13.653c3.413,3.413,3.413,8.533,0.853,11.947
			C126.147,423.107,123.587,423.96,121.88,423.96z"/>
		<path style="fill:#FFDB6E;" d="M255,472.6c-5.973,0-11.947,0-17.92-0.853c-5.12,0-8.533-4.267-7.68-9.387
			c0-5.12,4.267-8.533,9.387-7.68c5.12,0,11.093,0.853,16.213,0.853s8.533,3.413,8.533,8.533
			C263.533,469.187,260.12,472.6,255,472.6z"/>
	</g>
	<path style="fill:#FFBC5E;" d="M502.467,319c0,14.507-49.493,25.6-110.933,25.6S280.6,333.507,280.6,319
		c0-14.507,49.493-25.6,110.933-25.6S502.467,304.493,502.467,319"/>
	<g>
		<path style="fill:#FFBC5E;" d="M391.533,344.6c-61.44,0-110.933-11.093-110.933-25.6v51.2c0,14.507,49.493,25.6,110.933,25.6
			s110.933-11.093,110.933-25.6V319C502.467,333.507,452.973,344.6,391.533,344.6"/>
		<path style="fill:#FFBC5E;" d="M391.533,395.8c-61.44,0-110.933-11.093-110.933-25.6v51.2c0,14.507,49.493,25.6,110.933,25.6
			s110.933-11.093,110.933-25.6v-51.2C502.467,384.707,452.973,395.8,391.533,395.8"/>
		<path style="fill:#FFBC5E;" d="M391.533,447c-61.44,0-110.933-11.093-110.933-25.6v51.2c0,14.507,49.493,25.6,110.933,25.6
			s110.933-11.093,110.933-25.6v-51.2C502.467,435.907,452.973,447,391.533,447"/>
	</g>
	<g>
		<path style="fill:#FFDB6E;" d="M391.533,293.4c-4.267,0-8.533,0-12.8,0c55.467,1.707,98.133,12.8,98.133,25.6
			c0,12.8-42.667,23.893-98.133,25.6c4.267,0,8.533,0,12.8,0c61.44,0,110.933-11.093,110.933-25.6
			C502.467,304.493,452.973,293.4,391.533,293.4"/>
		<path style="fill:#FFDB6E;" d="M476.867,335.213V370.2c0,12.8-42.667,23.893-98.133,25.6c4.267,0,8.533,0,12.8,0
			c61.44,0,110.933-11.093,110.933-25.6V319C502.467,324.973,493.08,330.947,476.867,335.213"/>
		<path style="fill:#FFDB6E;" d="M476.867,386.413V421.4c0,12.8-42.667,23.893-98.133,25.6c4.267,0,8.533,0,12.8,0
			c61.44,0,110.933-11.093,110.933-25.6v-51.2C502.467,376.173,493.08,382.147,476.867,386.413"/>
		<path style="fill:#FFDB6E;" d="M476.867,437.613V472.6c0,12.8-42.667,23.893-98.133,25.6c4.267,0,8.533,0,12.8,0
			c61.44,0,110.933-11.093,110.933-25.6v-51.2C502.467,427.373,493.08,433.347,476.867,437.613"/>
	</g>
	<path style="fill:#FFBC5E;" d="M212.333,233.667H24.6c-9.387,0-17.067-7.68-17.067-17.067V28.867
		c0-9.387,7.68-17.067,17.067-17.067h187.733c9.387,0,17.067,7.68,17.067,17.067V216.6
		C229.4,225.987,221.72,233.667,212.333,233.667"/>
	<path style="fill:#FFBC5E;" d="M212.333,11.8h-25.6c9.387,0,17.067,7.68,17.067,17.067V216.6c0,9.387-7.68,17.067-17.067,17.067
		h25.6c9.387,0,17.067-7.68,17.067-17.067V28.867C229.4,19.48,221.72,11.8,212.333,11.8"/>
	<path style="fill:#FFBC5E;" d="M24.6,11.8h25.6c-9.387,0-17.067,7.68-17.067,17.067V216.6c0,9.387,7.68,17.067,17.067,17.067H24.6
		c-9.387,0-17.067-7.68-17.067-17.067V28.867C7.533,19.48,15.213,11.8,24.6,11.8"/>
	<path d="M212.333,242.2H24.6C10.093,242.2-1,231.107-1,216.6V28.867c0-14.507,11.093-25.6,25.6-25.6h187.733
		c14.507,0,25.6,11.093,25.6,25.6V216.6C237.933,231.107,226.84,242.2,212.333,242.2z M24.6,20.333c-5.12,0-8.533,3.413-8.533,8.533
		V216.6c0,5.12,3.413,8.533,8.533,8.533h187.733c5.12,0,8.533-3.413,8.533-8.533V28.867c0-5.12-3.413-8.533-8.533-8.533H24.6z"/>
	<path d="M459.8,259.267c-5.12,0-8.533-3.413-8.533-8.533c0-5.12,0-11.093-0.853-16.213c0-5.12,3.413-8.533,7.68-9.387
		c4.267,0,8.533,3.413,9.387,7.68c0.853,5.973,0.853,11.947,0.853,17.92C468.333,255.853,464.92,259.267,459.8,259.267z"/>
	<path d="M454.68,213.187c-4.267,0-7.68-2.56-8.533-6.827c-1.707-5.973-3.413-11.947-5.12-17.92
		c-1.707-4.267,0.853-9.387,5.12-11.093c4.267-1.707,9.387,0.853,11.093,5.12c1.707,6.827,4.267,12.8,5.12,19.627
		c0.853,4.267-1.707,9.387-6.827,10.24C456.387,213.187,455.533,213.187,454.68,213.187z M438.467,166.253
		c-3.413,0-5.973-1.707-7.68-5.12c-2.56-5.973-5.973-11.093-9.387-16.213c-2.56-4.267-1.707-9.387,2.56-11.947
		s9.387-1.707,11.947,2.56c3.413,5.973,6.827,11.947,10.24,17.92c1.707,4.267,0,9.387-3.413,11.093
		C441.027,166.253,440.173,166.253,438.467,166.253z"/>
	<path d="M411.16,126.147c-2.56,0-4.267-0.853-5.973-2.56c-4.267-4.267-8.533-9.387-13.653-13.653
		c-3.413-3.413-3.413-8.533-0.853-11.947c3.413-3.413,8.533-3.413,11.947-0.853c5.12,4.267,10.24,9.387,14.507,14.507
		c3.413,3.413,2.56,8.533-0.853,11.947C414.573,125.293,412.867,126.147,411.16,126.147z M373.613,93.72
		c-1.707,0-3.413-0.853-4.267-1.707c-5.12-3.413-11.093-6.827-16.213-9.387c-5.12-1.707-6.827-6.827-4.267-11.093
		c1.707-4.267,6.827-5.973,11.093-3.413c5.973,3.413,11.947,6.827,17.92,10.24c4.267,2.56,5.12,7.68,2.56,11.947
		C378.733,92.867,376.173,93.72,373.613,93.72z M329.24,73.24c-0.853,0-1.707,0-2.56,0c-5.973-1.707-11.947-3.413-17.92-5.12
		c-4.267-0.853-7.68-5.973-6.827-10.24c0.853-4.267,5.12-7.68,10.24-6.827c5.973,1.707,12.8,3.413,19.627,5.12
		c4.267,1.707,6.827,5.973,5.12,11.093C336.067,70.68,332.653,73.24,329.24,73.24z"/>
	<path d="M280.6,63.853L280.6,63.853C274.627,63,268.653,63,263.533,63c-5.12,0-8.533-3.413-8.533-8.533s3.413-8.533,8.533-8.533
		c5.973,0,11.947,0,17.92,0.853c5.12,0,8.533,4.267,7.68,9.387C289.133,60.44,284.867,63.853,280.6,63.853z"/>
	<path d="M51.053,293.4c-4.267,0-8.533-3.413-8.533-7.68c-0.853-5.973-0.853-11.947-0.853-17.92c0-5.12,3.413-8.533,8.533-8.533
		s8.533,3.413,8.533,8.533s0,11.093,0.853,16.213C59.587,289.133,56.173,293.4,51.053,293.4L51.053,293.4z"/>
	<path d="M80.92,386.413c-2.56,0-5.973-1.707-6.827-4.267c-3.413-5.973-6.827-11.947-10.24-17.92c-1.707-4.267,0-9.387,3.413-11.093
		c4.267-1.707,9.387,0,11.093,3.413c2.56,5.973,5.973,11.093,9.387,16.213c2.56,4.267,1.707,9.387-2.56,11.947
		C84.333,385.56,82.627,386.413,80.92,386.413z M60.44,342.04c-3.413,0-6.827-2.56-8.533-5.973c-1.707-6.827-4.267-12.8-5.12-19.627
		c-0.853-4.267,1.707-9.387,6.827-10.24c4.267-0.853,9.387,1.707,10.24,6.827c1.707,5.973,3.413,11.947,5.12,17.92
		c1.707,4.267-0.853,9.387-5.12,11.093C62.147,341.187,61.293,342.04,60.44,342.04z"/>
	<path d="M200.387,467.48c-0.853,0-0.853,0-1.707,0c-6.827-1.707-13.653-3.413-19.627-5.12c-4.267-1.707-6.827-5.973-5.12-11.093
		c1.707-4.267,5.973-6.827,11.093-5.12c5.973,1.707,11.947,3.413,17.92,5.12c4.267,0.853,7.68,5.973,6.827,10.24
		C207.213,464.92,203.8,467.48,200.387,467.48z M153.453,451.267c-1.707,0-2.56,0-3.413-0.853
		c-5.973-3.413-11.947-6.827-17.92-10.24c-4.267-2.56-5.12-7.68-2.56-11.947c2.56-4.267,7.68-5.12,11.947-2.56
		c5.12,3.413,11.093,6.827,16.213,9.387c4.267,1.707,5.973,6.827,3.413,11.093C159.427,449.56,156.867,451.267,153.453,451.267z
		 M113.347,423.96c-1.707,0-4.267-0.853-5.973-2.56c-5.12-4.267-10.24-9.387-14.507-14.507c-3.413-3.413-2.56-8.533,0.853-11.947
		c3.413-3.413,8.533-2.56,11.947,0.853c4.267,4.267,8.533,9.387,13.653,13.653c3.413,3.413,3.413,8.533,0.853,11.947
		C117.613,423.107,115.053,423.96,113.347,423.96z"/>
	<path d="M246.467,472.6c-5.973,0-11.947,0-17.92-0.853c-5.12,0-8.533-4.267-7.68-9.387c0-5.12,4.267-8.533,9.387-7.68
		c5.12,0,11.093,0.853,16.213,0.853c5.12,0,8.533,3.413,8.533,8.533C255,469.187,251.587,472.6,246.467,472.6z"/>
	<path d="M391.533,353.133c-11.947,0-119.467-0.853-119.467-34.133s107.52-34.133,119.467-34.133S511,285.72,511,319
		S403.48,353.133,391.533,353.133z M289.987,319c5.973,6.827,42.667,17.067,101.547,17.067S487.107,325.827,493.08,319
		c-5.973-6.827-42.667-17.067-101.547-17.067S295.96,312.173,289.987,319z M493.933,319.853L493.933,319.853L493.933,319.853z"/>
	<path d="M391.533,404.333c-11.947,0-119.467-0.853-119.467-34.133V319c0-5.12,3.413-8.533,8.533-8.533
		c4.267,0,8.533,3.413,8.533,7.68c4.267,6.827,41.813,17.92,102.4,17.92s98.133-11.093,102.4-17.92c0-4.267,4.267-7.68,8.533-7.68
		c5.12,0,8.533,3.413,8.533,8.533v51.2C511,403.48,403.48,404.333,391.533,404.333z M289.133,369.347
		c4.267,6.827,41.813,17.92,102.4,17.92s98.133-11.093,102.4-17.92v-31.573c-30.72,14.507-93.013,15.36-102.4,15.36
		s-71.68-0.853-102.4-14.507V369.347z"/>
	<path d="M391.533,455.533c-11.947,0-119.467-0.853-119.467-34.133v-51.2c0-5.12,3.413-8.533,8.533-8.533
		c4.267,0,8.533,3.413,8.533,7.68c4.267,6.827,41.813,17.92,102.4,17.92s98.133-11.093,102.4-17.92c0-4.267,4.267-7.68,8.533-7.68
		c5.12,0,8.533,3.413,8.533,8.533v51.2C511,454.68,403.48,455.533,391.533,455.533z M289.133,420.547
		c4.267,6.827,41.813,17.92,102.4,17.92s98.133-11.093,102.4-17.92v-31.573c-30.72,14.507-93.013,15.36-102.4,15.36
		s-71.68-0.853-102.4-14.507V420.547z"/>
	<path d="M391.533,506.733c-11.947,0-119.467-0.853-119.467-34.133v-51.2c0-5.12,3.413-8.533,8.533-8.533
		c4.267,0,8.533,3.413,8.533,7.68c4.267,6.827,41.813,17.92,102.4,17.92s98.133-11.093,102.4-17.92c0-4.267,4.267-7.68,8.533-7.68
		c5.12,0,8.533,3.413,8.533,8.533v51.2C511,505.88,403.48,506.733,391.533,506.733z M289.133,471.747
		c4.267,6.827,41.813,17.92,102.4,17.92s98.133-11.093,102.4-17.92v-31.573c-30.72,14.507-93.013,15.36-102.4,15.36
		s-71.68-0.853-102.4-14.507V471.747z"/>
	<path d="M127,63H41.667c-5.12,0-8.533-3.413-8.533-8.533s3.413-8.533,8.533-8.533H127c5.12,0,8.533,3.413,8.533,8.533
		S132.12,63,127,63z"/>
	<path d="M161.133,97.133H67.267c-5.12,0-8.533-3.413-8.533-8.533s3.413-8.533,8.533-8.533h93.867c5.12,0,8.533,3.413,8.533,8.533
		S166.253,97.133,161.133,97.133z"/>
	<path d="M127,131.267H41.667c-5.12,0-8.533-3.413-8.533-8.533s3.413-8.533,8.533-8.533H127c5.12,0,8.533,3.413,8.533,8.533
		S132.12,131.267,127,131.267z"/>
	<path d="M75.8,165.4H41.667c-5.12,0-8.533-3.413-8.533-8.533c0-5.12,3.413-8.533,8.533-8.533H75.8c5.12,0,8.533,3.413,8.533,8.533
		C84.333,161.987,80.92,165.4,75.8,165.4z"/>
	<path d="M127,199.533H58.733c-5.12,0-8.533-3.413-8.533-8.533c0-5.12,3.413-8.533,8.533-8.533H127c5.12,0,8.533,3.413,8.533,8.533
		C135.533,196.12,132.12,199.533,127,199.533z"/>
</g>
<g>
</g>
<g>
</g>
<g>
</g>
<g>
</g>
<g>
</g>
<g>
</g>
<g>
</g>
<g>
</g>
<g>
</g>
<g>
</g>
<g>
</g>
<g>
</g>
<g>
</g>
<g>
</g>
<g>
</g>
</svg>
